<?xml version="1.0" standalone="no"?>
<!DOCTYPE svg PUBLIC "-//W3C//DTD SVG 20010904//EN"
 "http://www.w3.org/TR/2001/REC-SVG-20010904/DTD/svg10.dtd">
<svg version="1.0" xmlns="http://www.w3.org/2000/svg"
 width="1080.000000pt" height="1080.000000pt" viewBox="0 0 1080.000000 1080.000000"
 preserveAspectRatio="xMidYMid meet">
<metadata>
Created by potrace 1.14, written by Peter Selinger 2001-2017
</metadata>
<g transform="translate(0.000000,1080.000000) scale(0.100000,-0.100000)"
fill="#000000" stroke="none">
<path d="M5150 10514 c-441 -39 -670 -74 -975 -150 -635 -158 -1308 -479
-1825 -869 -366 -276 -719 -624 -994 -979 -333 -429 -608 -938 -792 -1463
-200 -572 -296 -1188 -281 -1808 17 -700 160 -1343 439 -1975 190 -432 463
-866 787 -1250 120 -143 409 -435 556 -561 1221 -1052 2837 -1471 4418 -1148
980 200 1903 699 2606 1409 580 586 985 1241 1241 2010 135 404 211 775 252
1230 15 172 14 632 -1 815 -86 1006 -450 1951 -1052 2727 -116 149 -248 306
-293 347 -24 23 -26 23 -50 7 -46 -30 -498 -488 -687 -696 -1601 -1763 -2788
-3860 -3415 -6033 -81 -282 -123 -379 -233 -544 -285 -426 -754 -480 -1107
-128 -158 158 -210 239 -426 665 -648 1278 -1266 2291 -1737 2849 -134 158
-144 171 -140 175 2 1 121 51 264 110 143 59 265 110 271 112 24 10 301 -218
587 -484 420 -390 981 -1029 1163 -1325 52 -84 233 -354 269 -401 18 -23 14
-27 50 54 15 36 77 168 137 294 489 1029 1250 2239 2028 3226 818 1037 1650
1864 2455 2440 72 51 132 95 135 97 3 2 -5 12 -17 21 -11 9 -63 51 -114 93
-666 541 -1476 909 -2334 1062 -146 26 -168 29 -380 53 -123 14 -702 27 -805
18z"/>
</g>
</svg>
